<svg id="visual" viewBox="0 0 1100 750" width="1100" height="750" xmlns="http://www.w3.org/2000/svg" xmlns:xlink="http://www.w3.org/1999/xlink" version="1.1"><rect x="0" y="0" width="1100" height="750" fill="#FFFFFF"></rect><path d="M776 750L798.7 725C821.3 700 866.7 650 871.5 600C876.3 550 840.7 500 827 450C813.3 400 821.7 350 845.2 300C868.7 250 907.3 200 888 150C868.7 100 791.3 50 752.7 25L714 0L1100 0L1100 25C1100 50 1100 100 1100 150C1100 200 1100 250 1100 300C1100 350 1100 400 1100 450C1100 500 1100 550 1100 600C1100 650 1100 700 1100 725L1100 750Z" fill="#ff655c" stroke-linecap="round" stroke-linejoin="miter"></path></svg>